HIERARCHY
ROOT Hips
{
	OFFSET -14.64140 90.27770 -84.91600
	CHANNELS 6 Xposition Yposition Zposition Zrotation Xrotation Yrotation
	JOINT Spine
	{
		OFFSET 0.00000 13.20850 -1.60436
		CHANNELS 3 Zrotation Xrotation Yrotation
		JOINT Spine1
		{
			OFFSET 0.00000 8.61716 0.00000
			CHANNELS 3 Zrotation Xrotation Yrotation
			JOINT Spine2
			{
				OFFSET 0.00000 8.61717 0.00000
				CHANNELS 3 Zrotation Xrotation Yrotation
				JOINT Spine3
				{
					OFFSET 0.00000 8.61717 0.00000
					CHANNELS 3 Zrotation Xrotation Yrotation
					JOINT Neck
					{
						OFFSET 0.00000 11.07920 1.10792
						CHANNELS 3 Zrotation Xrotation Yrotation
						JOINT Neck1
						{
							OFFSET 0.00000 7.08032 0.00000
							CHANNELS 3 Zrotation Xrotation Yrotation
							JOINT Head
							{
								OFFSET 0.00000 7.08031 0.00000
								CHANNELS 3 Zrotation Xrotation Yrotation
								End site
								{
									OFFSET 0.00000 0.00000 0.00000
								}
							}
						}
					}
					JOINT RightShoulder
					{
						OFFSET -0.01000 7.91373 5.19711
						CHANNELS 3 Zrotation Xrotation Yrotation
						JOINT RightArm
						{
							OFFSET -18.41580 0.00000 0.00000
							CHANNELS 3 Zrotation Xrotation Yrotation
							JOINT RightForeArm
							{
								OFFSET -29.11090 0.00000 0.00000
								CHANNELS 3 Zrotation Xrotation Yrotation
								JOINT RightHand
								{
									OFFSET -24.65040 0.00000 0.00000
									CHANNELS 3 Zrotation Xrotation Yrotation
									JOINT RightHandThumb1
									{
										OFFSET -5.35114 -0.85590 3.97906
										CHANNELS 3 Zrotation Xrotation Yrotation
										JOINT RightHandThumb2
										{
											OFFSET -4.52789 0.00000 0.00000
											CHANNELS 3 Zrotation Xrotation Yrotation
											JOINT RightHandThumb3
											{
												OFFSET -2.46976 0.00000 0.00000
												CHANNELS 3 Zrotation Xrotation Yrotation
												End site
												{
													OFFSET 0.00000 0.00000 0.00000
												}
											}
										}
									}
									JOINT RightHandIndex1
									{
										OFFSET -14.26970 0.00000 2.88139
										CHANNELS 3 Zrotation Xrotation Yrotation
										JOINT RightHandIndex2
										{
											OFFSET -5.48836 0.00000 0.00000
											CHANNELS 3 Zrotation Xrotation Yrotation
											JOINT RightHandIndex3
											{
												OFFSET -3.01859 0.00000 0.00000
												CHANNELS 3 Zrotation Xrotation Yrotation
												End site
												{
													OFFSET 0.00000 0.00000 0.00000
												}
											}
										}
									}
									JOINT RightHandMiddle1
									{
										OFFSET -14.26970 0.00000 -0.09147
										CHANNELS 3 Zrotation Xrotation Yrotation
										JOINT RightHandMiddle2
										{
											OFFSET -6.17441 0.00000 0.00000
											CHANNELS 3 Zrotation Xrotation Yrotation
											JOINT RightHandMiddle3
											{
												OFFSET -3.56743 0.00000 0.00000
												CHANNELS 3 Zrotation Xrotation Yrotation
												End site
												{
													OFFSET 0.00000 0.00000 0.00000
												}
											}
										}
									}
									JOINT RightHandRing1
									{
										OFFSET -12.69180 0.00000 -3.06433
										CHANNELS 3 Zrotation Xrotation Yrotation
										JOINT RightHandRing2
										{
											OFFSET -5.62556 0.00000 0.00000
											CHANNELS 3 Zrotation Xrotation Yrotation
											JOINT RightHandRing3
											{
												OFFSET -3.56744 0.00000 0.00000
												CHANNELS 3 Zrotation Xrotation Yrotation
												End site
												{
													OFFSET 0.00000 0.00000 0.00000
												}
											}
										}
									}
									JOINT RightHandPinky1
									{
										OFFSET -11.11390 0.00000 -6.03719
										CHANNELS 3 Zrotation Xrotation Yrotation
										JOINT RightHandPinky2
										{
											OFFSET -4.52789 0.00000 0.00000
											CHANNELS 3 Zrotation Xrotation Yrotation
											JOINT RightHandPinky3
											{
												OFFSET -2.46976 0.00000 0.00000
												CHANNELS 3 Zrotation Xrotation Yrotation
												End site
												{
													OFFSET 0.00000 0.00000 0.00000
												}
											}
										}
									}
								}
							}
						}
					}
					JOINT LeftShoulder
					{
						OFFSET 0.01000 7.91373 5.19711
						CHANNELS 3 Zrotation Xrotation Yrotation
						JOINT LeftArm
						{
							OFFSET 18.41580 0.00000 0.00000
							CHANNELS 3 Zrotation Xrotation Yrotation
							JOINT LeftForeArm
							{
								OFFSET 29.11090 0.00000 0.00000
								CHANNELS 3 Zrotation Xrotation Yrotation
								JOINT LeftHand
								{
									OFFSET 24.65040 0.00000 0.00000
									CHANNELS 3 Zrotation Xrotation Yrotation
									JOINT LeftHandThumb1
									{
										OFFSET 5.35114 -0.85590 3.97906
										CHANNELS 3 Zrotation Xrotation Yrotation
										JOINT LeftHandThumb2
										{
											OFFSET 4.52789 0.00000 0.00000
											CHANNELS 3 Zrotation Xrotation Yrotation
											JOINT LeftHandThumb3
											{
												OFFSET 2.46977 0.00000 0.00000
												CHANNELS 3 Zrotation Xrotation Yrotation
												End site
												{
													OFFSET 0.00000 0.00000 0.00000
												}
											}
										}
									}
									JOINT LeftHandIndex1
									{
										OFFSET 14.26970 0.00000 2.88139
										CHANNELS 3 Zrotation Xrotation Yrotation
										JOINT LeftHandIndex2
										{
											OFFSET 5.48836 0.00000 0.00000
											CHANNELS 3 Zrotation Xrotation Yrotation
											JOINT LeftHandIndex3
											{
												OFFSET 3.01859 0.00000 0.00000
												CHANNELS 3 Zrotation Xrotation Yrotation
												End site
												{
													OFFSET 0.00000 0.00000 0.00000
												}
											}
										}
									}
									JOINT LeftHandMiddle1
									{
										OFFSET 14.26970 0.00000 -0.09147
										CHANNELS 3 Zrotation Xrotation Yrotation
										JOINT LeftHandMiddle2
										{
											OFFSET 6.17440 0.00000 0.00000
											CHANNELS 3 Zrotation Xrotation Yrotation
											JOINT LeftHandMiddle3
											{
												OFFSET 3.56744 0.00000 0.00000
												CHANNELS 3 Zrotation Xrotation Yrotation
												End site
												{
													OFFSET 0.00000 0.00000 0.00000
												}
											}
										}
									}
									JOINT LeftHandRing1
									{
										OFFSET 12.69180 0.00000 -3.06433
										CHANNELS 3 Zrotation Xrotation Yrotation
										JOINT LeftHandRing2
										{
											OFFSET 5.62556 0.00000 0.00000
											CHANNELS 3 Zrotation Xrotation Yrotation
											JOINT LeftHandRing3
											{
												OFFSET 3.56744 0.00000 0.00000
												CHANNELS 3 Zrotation Xrotation Yrotation
												End site
												{
													OFFSET 0.00000 0.00000 0.00000
												}
											}
										}
									}
									JOINT LeftHandPinky1
									{
										OFFSET 11.11390 0.00000 -6.03719
										CHANNELS 3 Zrotation Xrotation Yrotation
										JOINT LeftHandPinky2
										{
											OFFSET 4.52789 0.00000 0.00000
											CHANNELS 3 Zrotation Xrotation Yrotation
											JOINT LeftHandPinky3
											{
												OFFSET 2.46976 0.00000 0.00000
												CHANNELS 3 Zrotation Xrotation Yrotation
												End site
												{
													OFFSET 0.00000 0.00000 0.00000
												}
											}
										}
									}
								}
							}
						}
					}
					JOINT pCube4
					{
						OFFSET 0.00000 10.91090 1.10792
						CHANNELS 3 Zrotation Xrotation Yrotation
						End site
						{
							OFFSET 0.00000 0.00000 0.00000
						}
					}
				}
			}
		}
	}
	JOINT RightUpLeg
	{
		OFFSET -9.98441 0.00000 0.00000
		CHANNELS 3 Zrotation Xrotation Yrotation
		JOINT RightLeg
		{
			OFFSET 0.00000 -42.11790 0.00000
			CHANNELS 3 Zrotation Xrotation Yrotation
			JOINT RightFoot
			{
				OFFSET 0.00000 -45.00020 -0.00001
				CHANNELS 3 Zrotation Xrotation Yrotation
				JOINT RightForeFoot
				{
					OFFSET 0.00000 -3.74820 0.00000
					CHANNELS 3 Zrotation Xrotation Yrotation
					JOINT RightToeBase
					{
						OFFSET 0.00000 0.06325 14.43120
						CHANNELS 3 Zrotation Xrotation Yrotation
						End site
						{
							OFFSET 0.00000 0.00000 0.00000
						}
					}
				}
			}
		}
	}
	JOINT LeftUpLeg
	{
		OFFSET 9.98441 0.00000 0.00000
		CHANNELS 3 Zrotation Xrotation Yrotation
		JOINT LeftLeg
		{
			OFFSET 0.00000 -42.11800 0.00000
			CHANNELS 3 Zrotation Xrotation Yrotation
			JOINT LeftFoot
			{
				OFFSET 0.00000 -45.00070 0.00000
				CHANNELS 3 Zrotation Xrotation Yrotation
				JOINT LeftForeFoot
				{
					OFFSET 0.00000 -3.74824 0.00000
					CHANNELS 3 Zrotation Xrotation Yrotation
					JOINT LeftToeBase
					{
						OFFSET 0.00000 0.06325 14.43110
						CHANNELS 3 Zrotation Xrotation Yrotation
						End site
						{
							OFFSET 0.00000 0.00000 0.00000
						}
					}
				}
			}
		}
	}
}
MOTION
Frames: 4
Frame Time: 0.050000
-0.029434450378519612 0.011965519089253656 0.018436199934030045 0.0005229786768572262 0.021806838275672133 0.02066170079827645 -3.205501238965008 0.9354748567110033 -0.7494063208566875 -0.8078504062193983 3.5435542102513056 0.3530280040385721 -0.8684953096570928 -1.9793910072251222 -2.1354278593376774 -0.9532139462173033 -0.13782198013361605 -0.9837887539919645 -2.011682834288977 11.644473278897811 4.783373004434205 -0.22967521879737085 -0.5024055874301596 10.281290231534756 -1.6299654817259897 -15.263185332268142 0.8704464968780237 -1.9239152137198041 1.2710069228229186 -12.556954575414784 69.18350305064712 14.30548806576232 4.5062332181756934 51.56685199251328 9.967400475940543 91.69918633324811 21.463257919862507 -0.17996768183006107 -4.266906070107192 4.517431297121654 -0.13597840758929167 -1.6129755096217744 -0.026274475814629026 -0.018048538185938177 -56.26973700554513 0.007119127483431828 -0.041564294525193224 -56.20197746122628 -38.78025740677045 0.006083068468846861 0.00510471642454027 0.03824091218650117 0.03062080009676353 0.010056493861799198 -0.04069716936345087 0.028334789780990844 -0.031231997671326797 -36.68720436802687 0.009333634621652159 0.04064567493550284 0.0045124549506981694 0.02181337504196487 0.010128172649162378 -0.029175628425997586 -0.019731763932356577 -0.010667504160744056 -19.753680225521673 0.021206720742132732 0.03423515049067133 0.014699834060057534 0.021753802390041967 -0.04147625422180291 -0.047383689324173923 0.03310173764019355 0.006561320852114811 24.0726942973971 0.03763663101343869 -0.032737508063551884 28.847051358256813 -0.0020732309815536054 0.000400818404020773 28.847529265104857 -0.01892175812209596 -0.013050678890559778 8.309671501190344 1.9716842999844895 11.635403683091406 -67.05792614208366 12.31096240281503 -20.520460675241612 -70.93235781943979 7.038293688909111 -102.00873996003446 -21.62133828527361 1.0525469442826685 -2.3109789776632392 -0.48434188180850596 0.1146536443175081 -8.148841612009523 -0.007200987768653554 -0.0354446000964542 44.51959002135224 -0.014399536838212575 0.005249230557733266 44.550407840099524 12.508596592234877 0.03432036818952188 0.015239915141132945 0.04011379127640206 0.038199597971123794 -0.04718119301481225 0.01190216234594566 0.03415219132521052 0.005056877354439048 11.14240334428175 -0.04688297564256863 -0.00804425478677957 0.02081300888868841 -0.009964674952643995 -0.012916306851963266 -0.013995744431284719 -0.00560399912637141 -0.03174457377757222 4.776787006215003 -0.012288786952390643 0.03233229462857715 0.00881178739895315 0.003211047764847455 -0.01720250556955031 -0.015626342079845097 0.04904318372066261 -0.019222429875223865 -5.640552954630427 0.011496757846801898 -0.011940759088015975 -6.756764459072787 -0.033476268295037435 -0.01719498542188989 -6.764264482241137 -0.043258444317197796 -0.02572638865213616 -0.023060133609878353 0.00827536511703564 0.001716439834295455 8.034423722004387 3.5096200052475353 -19.23666443530279 0.007979284232630189 10.382786783065741 0.029248001323330473 -5.640097039497299 -15.680685785843371 3.2174374310662617 0.01107115404870647 0.035460714245644995 0.01783488228679394 -0.04012640831777835 4.662978013921062 0.026278954850399435 12.42263322758982 -8.254915974277932 6.887094331555734 -0.02432418509202087 46.35049074255687 -0.04354261602830325 -4.319826118279218 -14.776251777384866 -3.8636496648761276 -0.008105603689659017 -0.039582590195532244 0.03001228609604189 0.0009709195689082479 -10.735252124246875 -0.033523065698565724 
0.020888257543108576 -0.016498347401577965 -0.02470884552048669 -0.038781207929200034 -0.031688059287681175 -0.04668387325083047 -3.2283355303648547 1.0307521348047488 -0.760841294947477 -0.815251231014339 3.5118404795724967 0.34417767439828545 -0.829648827091794 -1.9855219519607237 -2.1502202993356443 -0.9700159750103188 -0.11336714872763809 -0.9204853375996664 -1.99308930064675 11.49987534621343 4.6988893846002355 -0.17177150172056432 -0.5497443221042019 10.100822906520044 -1.6162321457517614 -15.385499367136527 0.9313184963946817 -1.9664744268431178 1.308504590745417 -12.564252425066067 69.6825057621965 15.109380653433938 5.109982451286381 49.52489948423178 9.631208911266631 92.7263899243363 21.63578557012226 -0.16113462339964663 -4.474361250018069 4.506329649328364 -0.1520905021032568 -1.5711017097904427 0.02253442235509077 -0.02663465213086627 -56.23782324171211 0.0469457884850224 0.009193113187502098 -56.23555478743235 -38.80748715100176 -0.005342962805291865 0.03214392544859339 -0.040506841816306316 -0.027294093527051755 -0.02924992267305569 -0.024961114503414122 0.020705436113529284 0.015599012428462867 -36.72277325390376 -0.03083531801441493 -0.015585863751898585 -0.01585981061681436 -0.0046820408981027885 0.008025534364983511 -0.01245140680157612 0.026234492531165995 0.03772155069454061 -19.75166388373527 0.015991485722349097 0.03485907416880864 0.038145930023091246 0.001051421812735659 0.021088204930543707 -0.033571861593950134 0.01786320405138373 0.023129712848793223 24.097110447992215 -0.01545378040420395 -0.01788331313117647 28.879062122803326 0.007375129258969296 0.03495495169647076 28.87032495053986 0.016684987653165673 -0.04946106522535781 8.210668069204335 1.901089054531526 11.507465773660904 -67.41627549579123 13.4813645485291 -20.7544660348926 -68.02464360050564 7.386869718524791 -100.8405048025342 -21.39083238155121 0.5697100881636868 -1.6487670805327377 -0.5094913964762392 0.1080382432137407 -8.07809901465749 0.011137086981604151 0.0077611622313843885 44.60713108696222 0.015053157865072362 -0.0365155811495569 44.58207286615417 12.458227841524653 -0.014654741205591862 0.008603744907102725 0.003154204991601082 -0.009828391674454248 0.007470787921274819 0.0006498440668287056 -0.03639814147786095 0.025125966645192375 11.08637480013436 0.04621657622826492 -0.020570658160845183 0.013984567206903933 -0.028536127573542798 -0.0018683119145392355 0.04089922445306948 0.0017194710927249514 -0.023710431480661494 4.753137642046038 -0.004264141435933149 -0.01058595691977034 -0.0007450200273255984 0.040726029240399225 -0.0005818653702284084 -0.035755743303665884 0.03642301155904664 -0.026495802135596463 -5.561662469830592 0.027743918600181088 0.022829936797383 -6.684446014121469 -0.0005451890811282678 -0.021933626301087392 -6.7525451966691685 0.029614932120086052 -0.038916888184142996 0.005694780334402087 0.04614646072936142 -0.006250852980315943 8.03766128930097 3.478417508613069 -19.26338266530036 -0.046795846115565774 10.354075660481776 -0.030558470730701084 -5.63486581138581 -15.675264635569935 3.152397354564011 -0.004645998238855326 0.03550880912353231 0.008051897557927958 0.032416808880844694 4.668395485676625 0.0308664382208698 12.420805573552329 -8.285707944443377 6.848684394351036 -0.020983090352737863 46.33778842877599 0.016249650768860903 -4.333400044122606 -14.737747819972059 -3.7860999428589635 0.044517154395446915 0.006621017575911562 -0.02437227656496592 0.04009396860836874 -10.747449795925727 -0.027808176170695576 
-0.03900710457037639 -0.014101312368931066 -0.041992387077131516 0.02956879200627982 -0.02581180452259906 0.049244597429423984 -3.2354671496770298 0.9990297262199797 -0.7391209941161382 -0.8277496620178013 3.4754258033982484 0.3166771620823496 -0.8362378823144404 -1.9924973636171175 -2.2620922956664384 -0.9342731342373796 -0.10021891295738028 -0.9689735292545283 -1.9172807120962487 11.381671938747353 4.600606362826953 -0.15755332741752984 -0.6186119735875919 9.983316205308538 -1.5503647962793392 -15.472088638447769 0.9019659328922054 -2.1193552745563893 1.2955667837488105 -12.640702260220932 69.60315117736084 15.206604512026148 5.292396251113194 47.84405435179761 8.969080224917658 94.00802282642942 22.064437950856153 -0.2821475417758827 -4.584875763245382 4.575462890705575 -0.13827637483062966 -1.552160122651041 -0.015716583283356015 0.017798176371444135 -56.1919997478401 0.006221435533100237 -0.03533827064767995 -56.267907798023955 -38.77342565782335 0.020126786516153076 0.009383581996702072 0.034367441266993135 -0.009124747861034763 0.04721935436960943 -0.040469067185949406 0.03679953431182244 0.03542554435248731 -36.72362444024877 -0.0018104219160282767 0.04554295803063753 -0.014150880583586045 -0.04927082319336677 0.03007662635419066 0.014733907188946486 0.0020318776601952683 0.004258960757459216 -19.74596042528301 0.0006271002989904248 -0.01360333528267102 -0.0408189632412665 -0.0022597139750733628 -0.008837181586091675 -0.013167582806235735 -0.026108793564192174 -0.00559176901522512 24.009778303862486 -0.02013507251432063 0.008463282181783705 28.901340175729832 0.018592657851957513 -0.047357041038671145 28.874532746046036 -0.0016789103654346995 0.0311156271685318 8.307708934460114 1.929331255298022 11.47108860174849 -67.65234739341996 13.882312888427414 -21.11892507333835 -66.37160927050405 7.408663172584865 -99.60823317911186 -21.173422313124394 -0.016027308582255317 -0.9835717985254672 -0.4462675164568528 0.023592413841054385 -8.125687201883787 -0.031210970323473492 -0.001892174168109927 44.56582711148341 0.022107835147647067 0.010391084908505745 44.57376583211654 12.47483024343613 -0.00274888404337029 0.0025530217083720194 0.004042221900379997 -0.003581727883690944 0.04110285712638296 0.04125864643851175 -0.03466075294301043 0.04656797156791907 11.113470089996499 -0.020241526409293532 0.019480011599289217 -0.04057302314311011 0.02008469727994875 0.027346990641742334 0.04580313128846332 -0.0431754980066188 0.02385216448322592 4.7960479255156185 0.022237840546446525 0.038579416284243044 0.04635939589852476 -0.03909771674452092 -0.04900595303517136 -0.009017466533266556 -0.025822765936505863 -0.04303790856714844 -5.646172519815456 0.01051642932018791 -0.049016404707739075 -6.721506370237954 -0.008568222691984116 0.0026510697521718975 -6.754266143002331 0.025380112674245555 0.00936316807740772 -0.03098920257441276 -0.0046991180062063865 -0.019037362644419496 8.07260408484353 3.4842074066751656 -19.222397085956807 0.014665479241651354 10.361046588482903 0.03177796296789348 -5.633521838842286 -15.663496395419479 3.1500753656107245 0.008260984530551572 0.011514839874470457 -0.0033686123860562204 0.005078061436816265 4.747063380651632 0.03930691216174607 12.442969048222508 -8.20713003588485 6.8395407994354125 0.027984842709519765 46.36939973160166 -0.04688102776840039 -4.278597875689043 -14.783520972056662 -3.802290663498345 0.017078200852205086 0.037372792950511095 -0.008688777757818334 -0.04370178751865945 -10.757697279455062 0.0005212919526598324 
0.022365388179869498 0.004999326679966899 0.03189598217837372 0.029016917830456537 0.022687144509523586 -0.020531605339097824 -3.132437524164281 0.8295769914889556 -0.7796433354196787 -0.8154384985102475 3.4301212438314255 0.3268846321717074 -0.8729885958854974 -2.0286168317284248 -2.4227982716822387 -0.9508532337837934 -0.16902843429600736 -0.9426248542751281 -1.841802297835014 11.498817331287226 4.521785543958463 -0.18591229605397097 -0.5763559213517696 9.915251062739156 -1.5071611087014936 -15.455613710496646 0.8548004356949834 -2.399445509600885 1.4122533475301804 -12.696538044129454 68.97558641163447 13.969311756490736 5.405867449613121 47.646157697838476 8.3193516595713 95.23521119319135 22.674283394718294 -0.2841339438855143 -4.582909066950265 4.5224892680506255 -0.10453566693159119 -1.609363698301106 -0.026184901970940297 0.010076671554812233 -56.24264326162447 -0.015614122597111613 -0.04288613326043224 -56.20983958285099 -38.74849364442213 0.030097384788582822 -0.016160198439733337 -0.03193370266030495 -0.049178879335669105 0.030367920836511412 0.01733548958549581 0.03823353489460212 -0.017084474621407022 -36.71271288895453 0.041295378067326166 0.010732057852848875 0.01802490658933806 0.039111718941262516 0.030103882648037105 0.021399958956813236 0.044437366005741406 0.012678315949231302 -19.76236446153104 -0.026459409177807227 0.018965723671614924 0.0032487363211613513 0.011254013264338442 0.03532857204851959 0.0037510644330800763 -0.0033664799217503873 0.026081464881986944 24.05170203962034 0.046219612407823546 -0.012692042555986709 28.880867741226922 0.011333418233799552 0.02168864581967767 28.82704270724249 -0.011947970697539865 -0.041011578148876654 8.596510521354391 1.9473189479711925 11.32348628973548 -67.57145106704847 13.507720015704832 -21.68621930463724 -67.22959795424005 7.102529699438095 -99.21131343065846 -21.178282956215785 -0.7647317805080753 -0.34357475646925606 -0.49018144443618344 0.06868111627872525 -8.142052206695656 -0.0188639629016123 0.0016740473788400025 44.59950308034979 -0.014229795932393395 -0.02770309130904008 44.572302073995054 12.439266536209441 -0.0015132659944631656 0.026901225376818307 -0.045843143874051674 -0.02681592411103104 -0.03329185800105308 0.034116983255173705 0.028951365396208413 -0.003912774628110065 11.113280879591827 0.024044943736731605 0.01340435041603253 0.04542358643211063 0.04696740763504229 0.004014662557250492 -0.018557855794057592 -0.03499924635002047 0.027926213408637664 4.7251717338684625 0.010058386432423063 0.021829594574523475 -0.025211111034126706 -0.012552766632858758 -0.03462098559000161 -0.017696828449940295 0.012402385355996635 -0.004355696781422311 -5.63778461195081 -0.0328097133015846 0.02770670166120707 -6.742341045794518 0.0037639731403309204 -0.005298946160832251 -6.770254618498005 0.012156986466550973 -0.0012675279533385614 0.043219526053279285 0.02554883480813003 -0.03750115672817006 8.02756823541278 3.481783151694858 -19.245546185587358 -0.022224116249167356 10.37517222485329 0.008018710994702746 -5.613398273580202 -15.648273114870035 3.171977297410352 -0.023400556834291333 -0.008210866688192094 0.022598284559514032 0.011393923408574683 4.7028581713548805 0.0222339037515141 12.505917377587764 -8.277567977048312 6.9194180878652105 0.021887822633561232 46.40291869748147 -0.017566161507279715 -4.293106949504627 -14.70211676388977 -3.797021368109164 -0.01826695730450845 0.018688123472469925 -0.02047834465849822 -0.046977474682251844 -10.716454706220365 -0.003962468005723663 
